<svg width="40" height="30" viewBox="0 0 20 10" fill="none" xmlns="http://www.w3.org/2000/svg">
<path d="M19.2188 4.06249L2.67353 4.06249L5.41431 1.335C5.72013 1.03062 5.7213 0.535973 5.41693 0.230153C5.11255 -0.0757059 4.61786 -0.0768384 4.31204 0.227497L0.229858 4.28999C0.229585 4.29023 0.22939 4.2905 0.229155 4.29074C-0.0758836 4.59511 -0.0768601 5.09136 0.229077 5.39675C0.229351 5.39699 0.229546 5.39726 0.22978 5.39749L4.31196 9.45999C4.61775 9.76429 5.11243 9.76323 5.41685 9.45733C5.72122 9.15151 5.72005 8.65687 5.41423 8.35249L2.67353 5.62499L19.2188 5.62499C19.6502 5.62499 20 5.27523 20 4.84374C20 4.41226 19.6502 4.06249 19.2188 4.06249Z" fill="#0067a5"/>
</svg>
